<svg width="507" height="154" viewBox="0 0 507 154" fill="none" xmlns="http://www.w3.org/2000/svg">
<path fill-rule="evenodd" clip-rule="evenodd" d="M-57.9822 101.923C-56.8444 100.72 -55.6901 99.5818 -54.4781 98.3863C-51.9057 95.8469 -52.0294 95.1543 -49.7456 95.1461L-39.2334 95.1873C-42.5313 98.0482 -52.1036 102.08 -57.9822 101.923ZM-84.5058 95.212C-82.9063 95.0224 -72.93 94.8905 -72.2292 95.4346C-71.8829 95.7067 -71.0585 96.6384 -70.671 97.0259C-70.1186 97.5948 -69.6651 98.04 -69.0962 98.6006C-68.2964 99.3922 -66.5156 100.983 -65.9302 101.923C-69.5909 101.8 -73.367 100.777 -76.4094 99.6148C-78.7097 98.7326 -83.1207 96.5559 -84.5058 95.212ZM-70.9018 81.7894C-70.5638 82.0368 -70.8771 81.707 -70.4566 82.1934C-70.2092 82.4738 -70.3741 82.2841 -70.1515 82.6304L-68.3624 85.648C-66.1693 89.6468 -64.3389 95.6325 -64.1823 100.324C-64.6935 100.027 -69.9042 94.8657 -70.539 94.1237C-71.2976 93.2333 -70.9348 89.6055 -70.9348 88.1297C-70.9348 86.0603 -71.009 83.8342 -70.9018 81.7894ZM-59.5404 100.307C-59.5899 97.2567 -58.2872 92.417 -57.2978 89.8364C-56.5311 87.8494 -53.8597 82.3583 -52.7632 81.6163L-52.7467 92.9447C-52.7467 94 -54.7667 95.5913 -55.921 96.7538C-56.9433 97.7844 -58.5016 99.5323 -59.5404 100.307ZM-48.9706 93.0354C-48.8634 92.7386 -37.2464 80.9979 -36.6033 80.6022C-32.0357 82.7706 -29.4221 80.6269 -26.1324 78.3926C-27.2537 82.1522 -31.1865 87.9071 -33.2642 89.9848C-36.9249 93.6455 -35.8036 93.0436 -39.5632 93.0436C-42.6797 93.0436 -45.854 93.1013 -48.9706 93.0354ZM-98.052 77.1558C-95.4797 78.9202 -93.2206 84.2299 -86.9463 80.8413L-74.7109 92.9859C-78.0253 93.0271 -81.2821 93.0436 -84.5388 93.0436C-87.7295 93.0436 -87.004 93.662 -90.8213 89.5973C-93.8802 86.3406 -96.5762 81.5751 -98.052 77.1558ZM-73.029 73.6848H-63.2753L-63.2836 88.138C-63.9432 87.0991 -64.5698 85.3512 -65.1964 84.1557C-66.4991 81.674 -68.3294 78.8708 -70.1268 76.8673L-73.029 73.6848ZM-60.4803 73.693C-55.1294 73.6023 -54.8326 74.1382 -49.8115 72.852C-50.331 73.4374 -50.8669 73.8249 -51.4275 74.4103C-53.8433 76.9085 -56.7454 80.7094 -58.3449 83.7847C-59.0293 85.0956 -59.7548 86.9672 -60.4803 88.1215V73.693ZM-27.9545 66.7426C-22.9334 65.9429 -23.6177 71.2113 -25.2254 73.9651C-26.3797 75.9438 -29.3891 78.8543 -32.5221 79.2913C-40.1651 80.3466 -36.0592 68.0371 -27.9545 66.7426ZM-96.098 75.9933C-99.6598 72.4151 -99.5773 73.6353 -100.014 67.8474C-99.1981 68.3174 -95.0674 72.6294 -94.0863 73.6106C-92.2229 75.4986 -90.2772 77.3042 -88.5045 79.2006C-91.753 81.4102 -94.8283 77.263 -96.098 75.9933ZM-38.1451 78.879L-50.5948 91.4276C-50.8009 89.1521 -50.6607 82.1852 -50.6607 79.4314C-50.669 77.766 -45.4005 73.7177 -43.9082 72.6871C-42.2263 71.5164 -37.4113 68.573 -34.9873 68.1607C-37.1145 70.5682 -39.8683 74.0888 -38.1451 78.879ZM-85.3055 79.2418C-84.2337 76.7436 -83.5906 74.9957 -85.1819 72.2996C-85.4622 71.8214 -88.9745 68.1937 -89.2301 68.0453C-86.2867 68.1195 -78.5118 73.355 -75.9312 75.8202C-74.1091 77.5598 -73.062 78.1782 -73.0702 79.9838C-73.0702 83.0014 -72.93 88.7728 -73.1527 91.4771L-85.3055 79.2418ZM-98.4066 66.1325C-97.3183 66.1078 -94.0038 66.4293 -93.2206 67.0147C-92.4868 67.5589 -90.8873 69.3315 -90.2524 69.9663C-89.2136 71.0052 -84.5635 74.5835 -86.9957 77.634L-98.4066 66.1325ZM-67.1504 50.8878C-65.9879 50.0468 -64.8089 49.0739 -63.6381 48.1423C-62.8878 47.5404 -62.4261 47.5651 -62.4179 46.1305C-62.4096 45.1082 -62.4591 44.0941 -62.4014 43.0305L-60.7277 43.047C-60.5298 45.6194 -61.1564 47.9856 -59.6394 49.8984C-58.0399 51.9184 -56.8444 51.7123 -53.6289 51.7123C-50.7597 51.7123 -49.0612 51.7947 -47.6514 49.8737C-46.3322 48.0681 -46.7692 45.5616 -46.6538 43.0305L-43.9082 43.0635C-43.7021 46.6582 -43.8835 50.7971 -43.8835 54.4496C-43.8835 58.1845 -43.5372 61.5731 -45.2192 64.5248C-49.1272 71.3762 -55.451 70.2384 -62.4344 70.2302L-62.4179 65.6873C-59.2354 65.6296 -56.3827 64.6897 -54.2555 63.2551C-52.8044 62.2739 -50.298 59.6273 -50.0671 57.0384L-51.9634 56.7829L-52.3509 57.5744C-52.4746 57.8629 -52.5406 58.0773 -52.6807 58.3494C-54.3792 61.6968 -58.7819 63.7992 -62.4179 63.5354L-62.4673 54.8123C-63.2259 54.128 -64.0009 53.5426 -64.8336 52.8831C-65.5427 52.3142 -66.664 51.6298 -67.1504 50.8878ZM-40.3712 37.7291C-37.2052 37.3415 -33.6846 37.6466 -31.475 39.1389C-29.6529 40.3756 -27.8143 42.8079 -27.8555 46.1223C-27.8968 49.4202 -29.7354 51.7288 -31.5987 52.9655C-33.9897 54.5485 -36.9743 54.532 -40.4207 54.3259L-40.3712 37.7291ZM-48.1378 43.0305C-47.5524 49.9561 -49.0777 50.2777 -53.6289 50.2777C-56.2178 50.2777 -57.504 50.6075 -58.6747 48.7524C-59.491 47.458 -59.3508 44.6877 -59.1694 43.0057L-48.1378 43.0305ZM-64.5368 70.2219C-68.6675 70.2714 -73.2846 70.7166 -76.6072 68.9028C-84.1183 64.8133 -82.3456 56.6262 -82.3456 48.3401C-82.3456 46.1388 -82.4693 36.616 -82.2879 35.2309C-81.1666 35.9317 -80.3916 36.6078 -78.8498 37.3003C-74.7357 39.1389 -69.1869 39.5924 -64.545 39.7078L-64.578 46.114C-65.2788 46.9055 -66.7629 47.8619 -67.6369 48.5793C-68.6015 49.3708 -69.6404 50.154 -70.5885 50.962C-69.731 51.8442 -68.5438 52.6604 -67.4967 53.5014C-63.6876 56.5932 -64.5286 54.2517 -64.5368 63.5931C-67.1257 63.5024 -69.6239 62.8016 -71.4047 61.672C-72.8476 60.7569 -74.8676 58.8523 -75.2468 56.6922L-77.2998 57.0797C-77.1761 59.5779 -74.3152 62.2409 -72.8146 63.2633C-70.6462 64.7474 -67.7111 65.5718 -64.5368 65.7038V70.2219ZM-62.4014 31.7351L-43.8835 31.7928L-43.9495 41.5794L-62.4261 41.5382L-62.4014 31.7351ZM-82.2879 31.7433C-81.6366 31.834 -81.0842 32.5431 -80.5895 32.9141C-76.162 36.2285 -69.9619 36.8386 -64.545 36.8386L-64.5286 38.2732C-68.3459 38.1743 -72.0726 37.8857 -75.5437 36.9375C-77.7368 36.3439 -79.9876 35.3298 -81.5871 33.9117C-82.222 33.351 -82.4611 32.9635 -82.2879 31.7433ZM-64.5368 35.404C-67.4967 35.4287 -70.4566 35.2638 -73.1774 34.5878C-74.95 34.1508 -78.6437 32.9141 -79.5342 31.7433C-75.049 31.6609 -76.9535 32.2133 -72.4683 33.2933C-69.9454 33.9035 -67.2906 34.1096 -64.5533 34.1261L-64.5368 35.404ZM-85.8332 42.7914C-87.7213 42.8903 -93.5174 42.544 -94.6964 42.9893L-94.7294 44.0199C-93.5751 44.5393 -87.5811 44.16 -85.8414 44.2507C-85.8167 47.1611 -86.0063 59.4459 -85.6436 61.6556C-85.1984 64.3269 -84.613 64.6814 -84.1842 66.1078C-85.4869 65.7367 -86.8885 65.0112 -88.3396 64.5495C-92.8578 63.1066 -98.8353 62.0596 -103.576 62.6037C-103.898 76.0923 -99.1074 86.0767 -92.5198 92.9694C-86.4598 99.3097 -76.4094 105.502 -63.399 105.535L-63.3908 108.494C-73.5154 108.264 -83.2278 104.685 -90.8708 99.0871C-94.6387 96.3251 -97.5161 93.4971 -100.286 89.993C-110.386 77.2136 -110.09 65.1514 -110.782 63.659C-111.516 62.076 -114.064 62.3564 -114.187 64.4341C-114.468 69.1583 -110.93 79.1264 -108.655 83.5621C-100.979 98.5347 -86.2454 109.344 -69.1869 111.652C-67.7358 111.842 -64.611 111.9 -63.465 112.188L-63.3908 115.717C-71.9324 115.404 -79.0889 113.549 -85.8579 110.358C-89.7413 108.527 -95.4549 104.966 -98.5055 102.096C-99.1404 101.495 -99.7752 101.099 -100.377 100.447C-101.045 99.7137 -101.449 99.2932 -102.1 98.6584C-110.625 90.3476 -118.202 75.9274 -118.038 58.7039C-117.741 28.198 -92.4126 3.37284 -61.7748 3.39757C-17.3022 3.43055 9.78212 53.2706 -15.2904 90.933C-16.1891 92.2851 -17.3104 93.7857 -18.308 94.9482C-19.4376 96.2756 -20.2785 97.4546 -21.6142 98.6666C-22.2573 99.2437 -22.6036 99.7055 -23.2549 100.365C-26.6435 103.803 -33.4373 108.288 -37.8813 110.358C-44.3287 113.351 -52.2438 115.692 -60.4556 115.709C-60.5133 114.711 -60.6452 113.021 -60.3649 112.122C-40.9896 111.834 -23.6424 100.167 -15.0925 83.5456C-13.6662 80.7753 -12.5037 77.9886 -11.5473 74.839C-10.9207 72.7696 -9.42009 66.7096 -9.55201 64.4423C-9.67568 62.48 -12.0502 62.0513 -12.9077 63.5271C-13.2869 64.1785 -13.5755 67.6331 -13.7981 68.7626C-16.8075 84.0485 -26.4951 97.0506 -40.5031 103.655C-45.7716 106.145 -53.6701 108.635 -60.4721 108.486L-60.4886 105.543C-37.0568 105.139 -18.8439 86.2334 -20.2043 62.6367C-24.8956 61.6391 -33.8083 63.7497 -38.6233 65.745L-43.3558 68.0783C-40.4619 64.2362 -40.6927 61.8122 -40.3877 57.8877C-36.628 57.4177 -33.5775 58.8193 -28.9851 55.406C-22.8179 50.8136 -22.9086 41.2001 -28.8614 36.7149C-32.9591 33.6231 -34.7565 34.5053 -40.3547 34.1508L-40.4289 28.297L-85.825 28.2805L-85.8332 42.7914ZM-65.6416 0.149109C-74.7109 0.874655 -81.9829 2.91113 -88.958 6.53885C-95.9579 10.1913 -100.715 13.9592 -105.835 19.4585C-114.904 29.1792 -122.457 44.5888 -121.302 63.5106C-119.373 95.0719 -92.0003 121.043 -57.8915 118.99C-26.5941 117.094 -0.0704498 89.5231 -2.44496 55.5791C-3.41785 41.7196 -9.04083 29.0472 -17.9947 19.3678C-24.401 12.4504 -31.2029 7.7426 -40.1238 4.10663C-47.2639 1.1962 -57.0587 -0.535212 -65.6416 0.149109Z" fill="#EED014"/>
<path fill-rule="evenodd" clip-rule="evenodd" d="M336.13 26.5117C336.958 27.4904 337.915 29.082 338.722 30.265C339.658 31.62 340.41 32.674 341.271 33.9967L354.101 52.7954C355.854 55.3334 355.682 55.8711 357.316 55.8388C360.575 51.0639 363.984 46.1922 367.253 41.2237L376.04 28.2969C376.222 28.0066 376.395 27.7377 376.631 27.4366C376.674 27.3721 376.932 27.0602 376.965 27.0172C377.212 26.7483 377.147 26.8128 377.405 26.6085L377.416 71.7983L385.439 71.7123V12.1869H377.513L364.619 31.6093C363.769 32.8675 362.962 34.1796 362.027 35.5239C360.898 37.137 357.843 42.2776 356.736 43.181L336.13 12.1654L328.247 12.1869L328.29 71.7983L336.055 71.809L336.13 26.5117Z" fill="#EED014"/>
<path fill-rule="evenodd" clip-rule="evenodd" d="M139.53 25.6191C140.326 26.1676 157.393 48.128 157.834 48.6764L175.955 71.809L182.397 71.7123L182.408 12.1869L174.525 12.2192L174.535 57.1724C173.783 56.7314 172.793 55.3011 172.137 54.4085C171.406 53.4191 170.675 52.5265 169.922 51.5478L147.811 23.4575C146.262 21.5002 144.864 19.6827 143.358 17.7684C142.487 16.6607 141.917 15.9617 141.122 14.94C140.595 14.2733 139.412 12.8859 139.078 12.1654L131.658 12.2837L131.668 71.7875L139.508 71.7983L139.53 25.6191Z" fill="#EED014"/>
<path fill-rule="evenodd" clip-rule="evenodd" d="M276.1 19.6504L292.823 19.6397C300.566 19.6397 307.567 22.4573 307.535 30.5446C307.513 38.1372 300.964 41.8474 293.307 41.8474L276.143 41.8367C275.895 36.5563 276.089 26.8666 276.089 21.1238L276.1 19.6504ZM300.555 47.9236C301.555 47.2246 303.824 46.8267 305.169 46.2567C317.472 41.0839 318.44 25.9847 311.051 18.3492C306.685 13.8431 300.856 12.1654 292.575 12.1654C284.424 12.1654 276.25 12.2084 268.088 12.1654L268.141 71.809L276.1 71.7338L276.11 49.2142L291.618 49.2787L308.459 71.7983L318.267 71.809C317.902 70.8519 310.643 61.3881 309.427 59.8072C307.857 57.7746 306.502 55.9249 304.964 53.8923L300.555 47.9236Z" fill="#EED014"/>
<path fill-rule="evenodd" clip-rule="evenodd" d="M222.177 18.8971C235.759 17.0581 245.793 27.1995 247.213 38.9647C248.88 52.7088 240.179 63.4847 228.371 65.0978C214.767 66.9583 204.701 56.817 203.26 45.0194C201.571 31.1571 210.325 20.4995 222.177 18.8971ZM194.839 43.815C195.667 60.7531 209.056 73.8304 227.156 72.7549C243.632 71.7763 256.419 58.043 255.633 40.1907C254.881 23.2956 241.309 9.96024 223.284 11.2185C206.766 12.3692 193.957 25.9627 194.839 43.815Z" fill="#EED014"/>
<path fill-rule="evenodd" clip-rule="evenodd" d="M425.574 22.156C426.348 22.7474 433.274 38.965 434.737 42.1806C435.5 43.869 437.339 47.5362 437.673 49.0526L413.626 49.0634L425.574 22.156ZM395.064 71.755L403.42 71.7981L410.303 56.4193L440.996 56.4408L447.814 71.7873L456.385 71.8088C456.03 70.0021 435.274 24.9951 432.769 19.2845C431.79 17.0584 430.36 13.5847 429.284 11.735H422.24L395.064 71.755Z" fill="#EED014"/>
<path fill-rule="evenodd" clip-rule="evenodd" d="M84.1341 19.6387C89.7694 19.6602 98.7923 19.0902 103.879 20.3055C109.181 21.5745 113.053 25.2417 113.042 31.5007C113.02 40.2118 105.697 43.8575 97.0178 43.8575H84.1341V19.6387ZM76.1221 71.7005L84.1126 71.7973L84.1341 51.278C93.9851 51.1382 103.245 52.3749 111.224 48.127C126.194 40.1688 124.409 16.9178 105.729 12.8957C101.083 11.8956 96.1467 12.1644 91.2212 12.1644C87.8551 12.1644 78.8214 11.745 76.1006 12.2827L76.1221 71.7005Z" fill="#EED014"/>
<path fill-rule="evenodd" clip-rule="evenodd" d="M12.0692 12.2407C12.1229 19.3708 12.0692 26.5332 12.0692 33.6741C12.0692 39.9869 11.553 48.4936 12.8757 54.3332C15.4675 65.7436 23.9312 72.7339 37.1483 72.7232C50.3439 72.7017 58.7431 65.6145 61.2273 54.1289C62.5178 48.1065 62.0339 39.9116 62.0339 33.4375C62.0339 26.3612 62.0447 19.274 62.0339 12.1762L53.9896 12.1654C53.8176 23.5758 54.1079 35.782 53.9789 47.4504C53.8606 58.3661 48.0747 65.4317 36.901 65.2381C26.0068 65.0446 20.2102 57.9252 20.1242 46.9557C20.0489 35.4271 20.0919 23.8339 20.1349 12.1869L12.0692 12.2407Z" fill="#EED014"/>
<path fill-rule="evenodd" clip-rule="evenodd" d="M466.193 71.7973L506.942 71.7758V64.323L474.152 64.28V12.1752H466.161L466.193 71.7973Z" fill="#EED014"/>
<path d="M48.0528 88.9718L37.9548 107.872H35.0928L32.9868 92.8598L24.7518 107.872H21.8898L19.3518 88.9718H21.9978L24.0498 104.389L32.4198 88.9718H34.9308L37.0368 104.416L45.3528 88.9718H48.0528ZM62.4246 93.5618L59.5896 107.872H57.1056L57.4566 106.117C56.8086 106.729 56.0526 107.206 55.1886 107.548C54.3426 107.872 53.4156 108.034 52.4076 108.034C51.1836 108.034 50.0946 107.791 49.1406 107.305C48.1866 106.801 47.4396 106.081 46.8996 105.145C46.3596 104.209 46.0896 103.111 46.0896 101.851C46.0896 100.231 46.4406 98.7818 47.1426 97.5038C47.8446 96.2258 48.8076 95.2268 50.0316 94.5068C51.2736 93.7868 52.6596 93.4268 54.1896 93.4268C55.4136 93.4268 56.4576 93.6428 57.3216 94.0748C58.2036 94.5068 58.8786 95.1458 59.3466 95.9918L59.8326 93.5618H62.4246ZM52.9746 105.766C54.0366 105.766 54.9906 105.514 55.8366 105.01C56.7006 104.488 57.3666 103.768 57.8346 102.85C58.3206 101.932 58.5636 100.888 58.5636 99.7178C58.5636 98.4398 58.1946 97.4498 57.4566 96.7478C56.7186 96.0458 55.6656 95.6948 54.2976 95.6948C53.2356 95.6948 52.2816 95.9558 51.4356 96.4778C50.5896 96.9818 49.9236 97.6928 49.4376 98.6108C48.9516 99.5288 48.7086 100.573 48.7086 101.743C48.7086 103.003 49.0776 103.993 49.8156 104.713C50.5716 105.415 51.6246 105.766 52.9746 105.766ZM69.4349 95.6948C70.0649 94.9028 70.8389 94.3268 71.7569 93.9668C72.6749 93.6068 73.7909 93.4268 75.1049 93.4268L74.6189 95.9378C74.4569 95.9198 74.2319 95.9108 73.9439 95.9108C70.9739 95.9108 69.1739 97.5128 68.5439 100.717L67.1129 107.872H64.5209L67.3559 93.5618H69.8399L69.4349 95.6948ZM77.7897 101.527V101.689C77.7897 103.021 78.1677 104.038 78.9237 104.74C79.6797 105.424 80.8137 105.766 82.3257 105.766C83.2077 105.766 84.0357 105.622 84.8097 105.334C85.5837 105.028 86.2317 104.623 86.7537 104.119L87.8607 105.982C87.1587 106.63 86.3037 107.134 85.2957 107.494C84.2877 107.854 83.2257 108.034 82.1097 108.034C80.7057 108.034 79.4907 107.782 78.4647 107.278C77.4387 106.774 76.6467 106.054 76.0887 105.118C75.5307 104.182 75.2517 103.084 75.2517 101.824C75.2517 100.222 75.5937 98.7818 76.2777 97.5038C76.9797 96.2258 77.9427 95.2268 79.1667 94.5068C80.4087 93.7868 81.7947 93.4268 83.3247 93.4268C85.2687 93.4268 86.8167 93.9848 87.9687 95.1008C89.1387 96.1988 89.7237 97.7018 89.7237 99.6098C89.7237 100.186 89.6607 100.825 89.5347 101.527H77.7897ZM83.2167 95.5868C81.9387 95.5868 80.8407 95.9468 79.9227 96.6668C79.0047 97.3868 78.3837 98.3768 78.0597 99.6368H87.2937C87.3657 98.3588 87.0237 97.3688 86.2677 96.6668C85.5297 95.9468 84.5127 95.5868 83.2167 95.5868ZM101.937 93.4268C103.575 93.4268 104.844 93.8408 105.744 94.6688C106.662 95.4968 107.121 96.6668 107.121 98.1788C107.121 98.7008 107.067 99.2588 106.959 99.8528L105.366 107.872H102.774L104.367 99.8528C104.457 99.3668 104.502 98.9708 104.502 98.6648C104.502 97.7288 104.223 97.0088 103.665 96.5048C103.107 96.0008 102.279 95.7488 101.181 95.7488C99.7766 95.7488 98.6156 96.1358 97.6976 96.9098C96.7976 97.6658 96.1946 98.7998 95.8886 100.312L94.3766 107.872H91.7846L95.7806 87.8378H98.3726L96.8876 95.2358C98.1656 94.0298 99.8486 93.4268 101.937 93.4268ZM116.938 108.034C115.588 108.034 114.409 107.782 113.401 107.278C112.393 106.756 111.61 106.027 111.052 105.091C110.494 104.155 110.215 103.075 110.215 101.851C110.215 100.249 110.575 98.8088 111.295 97.5308C112.015 96.2528 113.014 95.2538 114.292 94.5338C115.57 93.7958 117.01 93.4268 118.612 93.4268C119.962 93.4268 121.141 93.6788 122.149 94.1828C123.157 94.6868 123.931 95.4068 124.471 96.3428C125.029 97.2608 125.308 98.3408 125.308 99.5828C125.308 101.185 124.948 102.634 124.228 103.93C123.508 105.208 122.509 106.216 121.231 106.954C119.971 107.674 118.54 108.034 116.938 108.034ZM117.1 105.766C118.162 105.766 119.116 105.514 119.962 105.01C120.826 104.488 121.492 103.768 121.96 102.85C122.446 101.932 122.689 100.888 122.689 99.7178C122.689 98.4398 122.32 97.4498 121.582 96.7478C120.844 96.0458 119.791 95.6948 118.423 95.6948C117.361 95.6948 116.407 95.9558 115.561 96.4778C114.715 96.9818 114.049 97.6928 113.563 98.6108C113.077 99.5288 112.834 100.573 112.834 101.743C112.834 103.003 113.203 103.993 113.941 104.713C114.697 105.415 115.75 105.766 117.1 105.766ZM143.553 93.5618L140.718 107.872H138.234L138.585 106.036C137.937 106.702 137.172 107.206 136.29 107.548C135.426 107.872 134.481 108.034 133.455 108.034C131.871 108.034 130.62 107.611 129.702 106.765C128.784 105.919 128.325 104.74 128.325 103.228C128.325 102.724 128.379 102.175 128.487 101.581L130.08 93.5618H132.672L131.079 101.608C130.989 102.094 130.944 102.499 130.944 102.823C130.944 103.759 131.214 104.479 131.754 104.983C132.312 105.469 133.131 105.712 134.211 105.712C135.579 105.712 136.713 105.325 137.613 104.551C138.531 103.777 139.143 102.643 139.449 101.149L140.961 93.5618H143.553ZM150.162 108.034C148.974 108.034 147.84 107.881 146.76 107.575C145.698 107.269 144.87 106.873 144.276 106.387L145.437 104.335C145.995 104.785 146.715 105.145 147.597 105.415C148.497 105.667 149.433 105.793 150.405 105.793C151.629 105.793 152.556 105.613 153.186 105.253C153.834 104.875 154.158 104.353 154.158 103.687C154.158 103.147 153.897 102.76 153.375 102.526C152.871 102.292 152.079 102.058 150.999 101.824C149.991 101.608 149.163 101.392 148.515 101.176C147.885 100.942 147.345 100.582 146.895 100.096C146.445 99.5918 146.22 98.9168 146.22 98.0708C146.22 97.1348 146.481 96.3158 147.003 95.6138C147.543 94.9118 148.299 94.3718 149.271 93.9938C150.261 93.6158 151.404 93.4268 152.7 93.4268C153.654 93.4268 154.581 93.5438 155.481 93.7778C156.381 94.0118 157.119 94.3268 157.695 94.7228L156.669 96.7748C156.111 96.3968 155.463 96.1178 154.725 95.9378C153.987 95.7398 153.231 95.6408 152.457 95.6408C151.287 95.6408 150.387 95.8388 149.757 96.2348C149.127 96.6128 148.812 97.1258 148.812 97.7738C148.812 98.3498 149.073 98.7638 149.595 99.0158C150.117 99.2498 150.927 99.4838 152.025 99.7178C153.015 99.9338 153.825 100.15 154.455 100.366C155.085 100.582 155.616 100.933 156.048 101.419C156.498 101.905 156.723 102.562 156.723 103.39C156.723 104.848 156.12 105.991 154.914 106.819C153.726 107.629 152.142 108.034 150.162 108.034ZM162.014 93.5618H164.606L161.771 107.872H159.179L162.014 93.5618ZM164.066 90.8078C163.598 90.8078 163.211 90.6548 162.905 90.3488C162.599 90.0428 162.446 89.6738 162.446 89.2418C162.446 88.7378 162.617 88.3148 162.959 87.9728C163.319 87.6128 163.769 87.4328 164.309 87.4328C164.777 87.4328 165.164 87.5858 165.47 87.8918C165.794 88.1798 165.956 88.5308 165.956 88.9448C165.956 89.5028 165.776 89.9528 165.416 90.2948C165.074 90.6368 164.624 90.8078 164.066 90.8078ZM176.872 93.4268C178.51 93.4268 179.779 93.8408 180.679 94.6688C181.597 95.4968 182.056 96.6668 182.056 98.1788C182.056 98.7008 182.002 99.2588 181.894 99.8528L180.301 107.872H177.709L179.302 99.8528C179.392 99.3668 179.437 98.9708 179.437 98.6648C179.437 97.7288 179.158 97.0088 178.6 96.5048C178.042 96.0008 177.214 95.7488 176.116 95.7488C174.712 95.7488 173.551 96.1358 172.633 96.9098C171.733 97.6658 171.13 98.7998 170.824 100.312L169.312 107.872H166.72L169.555 93.5618H172.039L171.688 95.3978C172.984 94.0838 174.712 93.4268 176.872 93.4268ZM201.701 93.5618L199.244 105.928C198.74 108.484 197.786 110.347 196.382 111.517C194.996 112.687 193.097 113.272 190.685 113.272C189.335 113.272 188.102 113.092 186.986 112.732C185.87 112.39 184.925 111.895 184.151 111.247L185.582 109.249C186.158 109.771 186.905 110.185 187.823 110.491C188.759 110.815 189.776 110.977 190.874 110.977C192.53 110.977 193.808 110.599 194.708 109.843C195.626 109.087 196.247 107.917 196.571 106.333L196.787 105.307C195.419 106.621 193.691 107.278 191.603 107.278C190.343 107.278 189.227 107.044 188.255 106.576C187.301 106.108 186.554 105.433 186.014 104.551C185.492 103.669 185.231 102.634 185.231 101.446C185.231 99.9518 185.573 98.5928 186.257 97.3688C186.959 96.1448 187.931 95.1818 189.173 94.4798C190.415 93.7778 191.819 93.4268 193.385 93.4268C194.609 93.4268 195.689 93.6608 196.625 94.1288C197.579 94.5788 198.281 95.2628 198.731 96.1808L199.244 93.5618H201.701ZM192.116 105.01C193.196 105.01 194.159 104.776 195.005 104.308C195.869 103.822 196.535 103.156 197.003 102.31C197.489 101.446 197.732 100.474 197.732 99.3938C197.732 98.2418 197.354 97.3418 196.598 96.6938C195.86 96.0278 194.816 95.6948 193.466 95.6948C192.386 95.6948 191.414 95.9378 190.55 96.4238C189.704 96.8918 189.038 97.5578 188.552 98.4218C188.084 99.2678 187.85 100.222 187.85 101.284C187.85 102.454 188.228 103.372 188.984 104.038C189.74 104.686 190.784 105.01 192.116 105.01Z" fill="black"/>
</svg>
