<svg width="571" height="135" viewBox="0 0 571 135" fill="none" xmlns="http://www.w3.org/2000/svg">
<path fill-rule="evenodd" clip-rule="evenodd" d="M70.8441 90.238C71.8514 89.1722 72.8734 88.1649 73.9464 87.1064C76.2239 84.8582 76.1144 84.245 78.1364 84.2377L87.4433 84.2742C84.5235 86.8072 76.0487 90.3766 70.8441 90.238ZM47.3614 84.2961C48.7775 84.1282 57.61 84.0114 58.2304 84.4932C58.537 84.7341 59.267 85.5589 59.61 85.902C60.0991 86.4057 60.5006 86.7999 61.0043 87.2962C61.7123 87.997 63.289 89.4058 63.8073 90.238C60.5663 90.1285 57.2231 89.2233 54.5295 88.1941C52.493 87.413 48.5877 85.4859 47.3614 84.2961ZM59.4057 72.4124C59.7049 72.6314 59.4276 72.3394 59.7998 72.7701C60.0188 73.0183 59.8728 72.8504 60.0699 73.157L61.6539 75.8286C63.5956 79.3689 65.2161 84.6684 65.3548 88.8218C64.9022 88.5591 60.2889 83.9895 59.7268 83.3326C59.0553 82.5442 59.3765 79.3324 59.3765 78.0258C59.3765 76.1936 59.3108 74.2227 59.4057 72.4124ZM69.4645 88.8072C69.4207 86.1064 70.574 81.8215 71.45 79.5368C72.1288 77.7776 74.4939 72.9161 75.4647 72.2591L75.4793 82.2887C75.4793 83.2231 73.6909 84.6319 72.669 85.6611C71.7638 86.5736 70.3842 88.1211 69.4645 88.8072ZM78.8225 82.369C78.9174 82.1062 89.2025 71.7116 89.7719 71.3613C93.8158 73.281 96.1298 71.3832 99.0424 69.405C98.0496 72.7336 94.5677 77.8287 92.7282 79.6682C89.4872 82.9092 90.4799 82.3763 87.1513 82.3763C84.3921 82.3763 81.5818 82.4274 78.8225 82.369ZM35.3682 68.31C37.6456 69.8721 39.6457 74.5731 45.2007 71.5729L56.0333 82.3252C53.0988 82.3617 50.2155 82.3763 47.3322 82.3763C44.5072 82.3763 45.1496 82.9238 41.7699 79.3251C39.0617 76.4418 36.6748 72.2226 35.3682 68.31ZM57.5224 65.2369H66.1578L66.1505 78.0331C65.5665 77.1133 65.0117 75.5658 64.457 74.5074C63.3036 72.3102 61.6831 69.8283 60.0918 68.0546L57.5224 65.2369ZM68.6323 65.2442C73.3697 65.1639 73.6325 65.6384 78.078 64.4997C77.6181 65.0179 77.1436 65.361 76.6473 65.8793C74.5085 68.091 71.939 71.4562 70.5229 74.1789C69.917 75.3395 69.2747 76.9965 68.6323 78.0185V65.2442ZM97.4291 59.0907C101.875 58.3826 101.269 63.047 99.8453 65.4851C98.8234 67.237 96.159 69.8137 93.3852 70.2006C86.6185 71.135 90.2537 60.2367 97.4291 59.0907ZM37.0982 67.2808C33.9447 64.1128 34.0177 65.1931 33.6309 60.0688C34.3535 60.4849 38.0106 64.3026 38.8793 65.1712C40.529 66.8428 42.2517 68.4414 43.8211 70.1203C40.945 72.0766 38.2223 68.4049 37.0982 67.2808ZM88.4069 69.8356L77.3845 80.9456C77.202 78.9309 77.3261 72.7628 77.3261 70.3247C77.3188 68.8502 81.9832 65.2661 83.3045 64.3537C84.7936 63.3171 89.0565 60.7112 91.2026 60.3462C89.3193 62.4777 86.8813 65.5946 88.4069 69.8356ZM46.6533 70.1568C47.6022 67.9451 48.1716 66.3975 46.7628 64.0106C46.5146 63.5872 43.405 60.3754 43.1787 60.244C45.7847 60.3097 52.6682 64.9449 54.9529 67.1275C56.5661 68.6677 57.4932 69.2152 57.4859 70.8138C57.4859 73.4854 57.61 78.5951 57.4129 80.9894L46.6533 70.1568ZM35.0543 58.5505C36.0178 58.5286 38.9522 58.8133 39.6457 59.3316C40.2954 59.8133 41.7115 61.3827 42.2736 61.9448C43.1933 62.8646 47.3103 66.0326 45.1569 68.7334L35.0543 58.5505ZM62.727 45.0536C63.7562 44.309 64.8 43.4477 65.8366 42.6228C66.5008 42.09 66.9096 42.1119 66.9169 40.8417C66.9242 39.9366 66.8804 39.0387 66.9315 38.0971L68.4133 38.1117C68.5885 40.3892 68.0338 42.4841 69.3769 44.1776C70.793 45.966 71.8514 45.7836 74.6983 45.7836C77.2385 45.7836 78.7422 45.8565 79.9905 44.1557C81.1584 42.5571 80.7715 40.3381 80.8737 38.0971L83.3045 38.1263C83.487 41.3089 83.3264 44.9733 83.3264 48.207C83.3264 51.5137 83.6329 54.5138 82.1438 57.1271C78.6838 63.193 73.0851 62.1857 66.9023 62.1784L66.9169 58.1563C69.7346 58.1052 72.2602 57.2731 74.1435 56.003C75.4282 55.1343 77.6473 52.7911 77.8517 50.4991L76.1728 50.2728L75.8297 50.9735C75.7202 51.229 75.6618 51.4188 75.5377 51.6597C74.034 54.6233 70.136 56.4847 66.9169 56.2511L66.8731 48.5282C66.2016 47.9223 65.5154 47.4041 64.7781 46.8201C64.1504 46.3164 63.1576 45.7106 62.727 45.0536ZM86.436 33.4035C89.239 33.0604 92.3559 33.3305 94.3122 34.6517C95.9254 35.7466 97.5532 37.9 97.5167 40.8344C97.4802 43.7543 95.8524 45.7981 94.2027 46.8931C92.0859 48.2946 89.4434 48.28 86.3922 48.0975L86.436 33.4035ZM79.5598 38.0971C80.078 44.2287 78.7276 44.5134 74.6983 44.5134C72.4062 44.5134 71.2675 44.8054 70.2309 43.163C69.5083 42.017 69.6324 39.5643 69.793 38.0752L79.5598 38.0971ZM65.0409 62.1711C61.3838 62.2149 57.2961 62.6091 54.3544 61.0032C47.7044 57.3826 49.2738 50.1341 49.2738 42.798C49.2738 40.849 49.1644 32.418 49.3249 31.1917C50.3177 31.8122 51.0038 32.4107 52.3689 33.0239C56.0114 34.6517 60.924 35.0532 65.0336 35.1554L65.0044 40.8271C64.384 41.5279 63.07 42.3746 62.2963 43.0097C61.4422 43.7105 60.5225 44.4039 59.683 45.1193C60.4422 45.9003 61.4933 46.623 62.4204 47.3676C65.7928 50.1049 65.0482 48.0318 65.0409 56.3022C62.7489 56.2219 60.5371 55.6015 58.9604 54.6014C57.683 53.7912 55.8946 52.105 55.5588 50.1925L53.7412 50.5356C53.8507 52.7473 56.3836 55.1051 57.7122 56.0103C59.6319 57.3242 62.2306 58.0541 65.0409 58.1709V62.1711ZM66.9315 28.0967L83.3264 28.1478L83.268 36.8124L66.9096 36.7759L66.9315 28.0967ZM49.3249 28.104C49.9016 28.1843 50.3907 28.812 50.8287 29.1405C54.7485 32.075 60.2378 32.6151 65.0336 32.6151L65.0482 33.8852C61.6685 33.7976 58.3691 33.5422 55.296 32.7027C53.3543 32.1771 51.3615 31.2793 49.9454 30.0238C49.3833 29.5274 49.1717 29.1843 49.3249 28.104ZM65.0409 31.345C62.4204 31.3669 59.7998 31.2209 57.391 30.6223C55.8216 30.2355 52.5514 29.1405 51.763 28.104C55.734 28.031 54.0478 28.5201 58.0187 29.4763C60.2524 30.0165 62.6029 30.199 65.0263 30.2136L65.0409 31.345ZM46.1861 37.8854C44.5145 37.973 39.3829 37.6664 38.3391 38.0606L38.3099 38.973C39.3318 39.4329 44.6386 39.0971 46.1788 39.1774C46.2007 41.7542 46.0328 52.6306 46.354 54.5868C46.7482 56.9519 47.2665 57.2658 47.646 58.5286C46.4927 58.2001 45.2518 57.5578 43.9671 57.149C39.9669 55.8716 34.6747 54.9445 30.4774 55.4263C30.1928 67.3684 34.4338 76.2082 40.2662 82.3106C45.6314 87.924 54.5295 93.406 66.0483 93.4352L66.0556 96.0557C57.0917 95.8513 48.4928 92.6833 41.7261 87.7269C38.3902 85.2815 35.8426 82.7778 33.39 79.6755C24.448 68.3611 24.7108 57.6819 24.0976 56.3606C23.448 54.9591 21.1924 55.2073 21.0829 57.0468C20.8347 61.2294 23.9662 70.0546 25.9809 73.9818C32.7768 87.2378 45.8211 96.8076 60.924 98.8515C62.2087 99.0193 64.9752 99.0704 65.9899 99.3259L66.0556 102.45C58.4932 102.173 52.1572 100.53 46.1642 97.7054C42.7261 96.0849 37.6675 92.9315 34.9667 90.3912C34.4046 89.8584 33.8425 89.508 33.3097 88.9313C32.7184 88.2817 32.3607 87.9094 31.7841 87.3473C24.2363 79.9893 17.528 67.2224 17.674 51.9736C17.9368 24.9652 40.3611 2.98615 67.4863 3.00805C106.86 3.03724 130.839 47.1632 108.641 80.5076C107.846 81.7048 106.853 83.0333 105.97 84.0625C104.97 85.2377 104.225 86.2816 103.043 87.3546C102.473 87.8656 102.167 88.2744 101.59 88.8583C98.5898 91.9023 92.5749 95.8732 88.6405 97.7054C82.9322 100.355 75.9246 102.428 68.6542 102.443C68.6031 101.56 68.4863 100.063 68.7345 99.2675C85.8885 99.012 101.247 88.6831 108.816 73.9672C110.079 71.5145 111.109 69.0473 111.955 66.2589C112.51 64.4267 113.839 59.0615 113.722 57.0541C113.612 55.3168 111.51 54.9372 110.751 56.2438C110.415 56.8205 110.16 59.879 109.963 60.8791C107.298 74.4125 98.7212 85.9239 86.3192 91.7709C81.6548 93.9753 74.6618 96.1798 68.6396 96.0484L68.625 93.4425C89.3704 93.0848 105.495 76.3469 104.291 55.4555C100.137 54.5722 92.2464 56.4409 87.9835 58.2074L83.7935 60.2732C86.3557 56.8716 86.1513 54.7255 86.4214 51.2509C89.75 50.8349 92.4508 52.0758 96.5167 49.0538C101.977 44.9879 101.896 36.4766 96.6262 32.5056C92.9983 29.7683 91.407 30.5493 86.4506 30.2355L86.3849 25.0528L46.1934 25.0382L46.1861 37.8854ZM64.0628 0.132014C56.0333 0.774377 49.595 2.57737 43.4196 5.78918C37.2222 9.0229 33.0104 12.3588 28.4774 17.2276C20.4478 25.8338 13.7614 39.4767 14.7834 56.2292C16.4915 84.172 40.726 107.166 70.9244 105.348C98.6336 103.669 122.116 79.2594 120.014 49.2071C119.153 36.9365 114.174 25.717 106.247 17.1473C100.575 11.023 94.5531 6.85492 86.655 3.63581C80.3335 1.05906 71.6616 -0.47385 64.0628 0.132014Z" fill="#EED014"/>
<path fill-rule="evenodd" clip-rule="evenodd" d="M419.772 23.4723C420.505 24.3387 421.352 25.7479 422.066 26.7952C422.895 27.9949 423.561 28.928 424.323 30.0992L435.682 46.7425C437.234 48.9896 437.082 49.4657 438.529 49.4371C441.414 45.2096 444.432 40.8964 447.327 36.4975L455.106 25.0528C455.267 24.7957 455.42 24.5577 455.629 24.2911C455.667 24.234 455.896 23.9579 455.924 23.9198C456.143 23.6817 456.086 23.7389 456.315 23.558L456.324 63.5668L463.427 63.4907V10.7898H456.41L444.994 27.9854C444.242 29.0994 443.528 30.261 442.699 31.4512C441.7 32.8794 438.995 37.4306 438.015 38.2304L419.772 10.7708L412.793 10.7898L412.831 63.5668L419.705 63.5763L419.772 23.4723Z" fill="#EED014"/>
<path fill-rule="evenodd" clip-rule="evenodd" d="M245.711 22.682C246.416 23.1676 261.526 42.6103 261.917 43.0958L277.96 63.5763L283.664 63.4907L283.673 10.7898L276.694 10.8184L276.704 50.6177C276.037 50.2274 275.161 48.961 274.58 48.1707C273.933 47.2948 273.285 46.5045 272.619 45.6381L253.043 20.7682C251.672 19.0353 250.434 17.4262 249.101 15.7314C248.33 14.7507 247.825 14.1318 247.121 13.2273C246.654 12.6369 245.607 11.4087 245.312 10.7708L238.742 10.8755L238.751 63.5573L245.692 63.5668L245.711 22.682Z" fill="#EED014"/>
<path fill-rule="evenodd" clip-rule="evenodd" d="M366.624 17.3976L381.429 17.3881C388.285 17.3881 394.483 19.8827 394.455 27.0428C394.436 33.7649 388.637 37.0498 381.858 37.0498L366.662 37.0402C366.443 32.3652 366.614 23.7865 366.614 18.7021L366.624 17.3976ZM388.275 42.4293C389.161 41.8105 391.17 41.4582 392.36 40.9535C403.252 36.3738 404.109 23.0057 397.568 16.2455C393.702 12.2561 388.542 10.7708 381.21 10.7708C373.993 10.7708 366.757 10.8088 359.53 10.7708L359.578 63.5763L366.624 63.5097L366.633 43.5719L380.363 43.629L395.273 63.5668L403.957 63.5763C403.633 62.7289 397.206 54.3501 396.13 52.9505C394.74 51.1509 393.541 49.5133 392.179 47.7137L388.275 42.4293Z" fill="#EED014"/>
<path fill-rule="evenodd" clip-rule="evenodd" d="M318.883 16.7307C330.909 15.1026 339.792 24.0812 341.049 34.4976C342.525 46.666 334.822 56.2064 324.367 57.6346C312.323 59.2818 303.411 50.3031 302.135 39.8582C300.64 27.5851 308.391 18.1494 318.883 16.7307ZM294.68 38.7918C295.413 53.788 307.267 65.366 323.292 64.4138C337.878 63.5474 349.199 51.3886 348.504 35.5831C347.838 20.625 335.822 8.81846 319.864 9.93246C305.239 10.9512 293.899 22.9863 294.68 38.7918Z" fill="#EED014"/>
<path fill-rule="evenodd" clip-rule="evenodd" d="M498.961 19.6159C499.647 20.1395 505.778 34.4978 507.073 37.3447C507.749 38.8395 509.378 42.0863 509.673 43.4288L488.383 43.4384L498.961 19.6159ZM471.949 63.5285L479.347 63.5666L485.441 49.951L512.615 49.97L518.651 63.557L526.24 63.5761C525.926 61.9765 507.549 22.1295 505.331 17.0737C504.464 15.1027 503.198 12.0273 502.246 10.3896H496.01L471.949 63.5285Z" fill="#EED014"/>
<path fill-rule="evenodd" clip-rule="evenodd" d="M196.667 17.3873C201.656 17.4064 209.644 16.9017 214.148 17.9777C218.842 19.1012 222.27 22.348 222.26 27.8894C222.241 35.6017 215.757 38.8295 208.073 38.8295H196.667V17.3873ZM189.573 63.4804L196.648 63.566L196.667 45.3992C205.388 45.2755 213.586 46.3704 220.651 42.6095C233.905 35.5637 232.324 14.9784 215.786 11.4174C211.672 10.5319 207.302 10.77 202.941 10.77C199.961 10.77 191.963 10.3986 189.554 10.8747L189.573 63.4804Z" fill="#EED014"/>
<path fill-rule="evenodd" clip-rule="evenodd" d="M132.864 10.8374C132.912 17.1501 132.864 23.4913 132.864 29.8135C132.864 35.4026 132.407 42.934 133.578 48.1041C135.873 58.2063 143.366 64.3952 155.068 64.3857C166.751 64.3666 174.187 58.092 176.386 47.9232C177.529 42.5912 177.1 35.3359 177.1 29.604C177.1 23.339 177.11 17.0644 177.1 10.7803L169.978 10.7708C169.826 20.8729 170.083 31.6797 169.969 42.0104C169.864 51.6746 164.742 57.9302 154.849 57.7588C145.204 57.5874 140.072 51.2842 139.995 41.5724C139.929 31.3655 139.967 21.1015 140.005 10.7898L132.864 10.8374Z" fill="#EED014"/>
<path fill-rule="evenodd" clip-rule="evenodd" d="M534.923 63.5658L571 63.5468V56.9485L541.969 56.9104V10.7793H534.895L534.923 63.5658Z" fill="#EED014"/>
<path fill-rule="evenodd" clip-rule="evenodd" d="M65.3547 20.0374C60.5443 19.7162 59.7779 9.03691 64.9387 7.63539C64.6467 10.4749 64.6905 11.4166 65.5007 13.9933C66.0117 15.6211 66.0336 18.4534 65.3547 20.0374ZM66.7344 7.4602C72.8003 8.39454 71.8222 19.6067 67.2161 20.0009C68.2965 12.1611 66.4862 14.4824 66.4497 9.69387L66.7344 7.4602ZM65.4277 5.7302C56.7339 6.97843 58.2596 23.366 67.2307 21.855C70.99 21.2199 73.0193 17.4095 72.6616 12.8546C72.355 8.88361 69.6907 5.11703 65.4277 5.7302Z" fill="#EED014"/>
<path fill-rule="evenodd" clip-rule="evenodd" d="M80.0852 19.6805C80.1217 18.8484 80.4356 17.8994 80.7494 17.2278C81.1655 16.3665 81.4429 16.1329 81.9904 15.5124C82.3626 15.0891 82.8955 14.4102 83.2386 13.8116C83.8299 12.8043 83.6839 12.3006 84.2094 11.8335C85.3117 13.7605 85.4796 14.8482 84.2678 17.133C83.516 18.5564 82.3699 19.8703 80.0852 19.6805ZM78.7932 18.9432C76.2164 17.2862 78.5231 10.3662 82.8444 11.067C82.7787 12.8189 81.6327 14.0087 80.764 14.9358C80.3699 15.3592 79.8954 16.1037 79.618 16.7461C79.4793 17.0527 79.3406 17.4322 79.2165 17.8191L78.9172 18.7024C78.9099 18.7316 78.8661 18.8411 78.8588 18.8192C78.8516 18.7973 78.8224 18.8994 78.7932 18.9432ZM81.3334 9.84068C74.9536 11.0524 74.8368 22.3011 81.6035 20.8703C84.005 20.3667 85.9175 17.8045 86.2752 15.0526C86.6767 11.8992 84.4576 9.24211 81.3334 9.84068Z" fill="#EED014"/>
<path fill-rule="evenodd" clip-rule="evenodd" d="M52.4197 19.666C47.7407 20.1404 46.1567 12.6438 48.478 11.8846C49.2006 13.7095 49.5072 14.4906 50.6022 15.6074C51.5219 16.5417 52.2957 17.9871 52.4197 19.666ZM49.6751 11.0671C53.8067 10.359 56.325 16.987 53.7191 18.9287L53.2446 17.7024C53.1132 17.3009 53.0037 17.0016 52.8358 16.6512C51.7555 14.3081 49.5729 13.3737 49.6751 11.0671ZM49.6824 9.83344C43.1785 11.0598 46.7407 22.0602 52.6168 20.885C58.8288 19.6368 55.6097 8.70931 49.6824 9.83344Z" fill="#EED014"/>
<path fill-rule="evenodd" clip-rule="evenodd" d="M34.8644 51.3095C35.8279 51.4555 35.9301 51.2949 35.9301 50.3313V43.4551C35.9301 42.2142 36.2002 41.7908 34.8571 41.9587C34.4775 42.8493 34.4702 50.4408 34.8644 51.3095Z" fill="#EED014"/>
<path fill-rule="evenodd" clip-rule="evenodd" d="M35.7039 35.3964C36.1565 34.5132 35.9156 29.5057 35.9375 27.7173C35.9448 27.1771 36.0616 25.4325 34.9959 26.0238C34.3681 26.3742 34.6601 30.1772 34.6601 31.0021C34.6601 31.8708 34.6674 32.7467 34.6601 33.6226C34.6455 34.8198 34.3681 35.6081 35.7039 35.3964Z" fill="#EED014"/>
<path fill-rule="evenodd" clip-rule="evenodd" d="M37.7112 36.192C38.7697 36.6884 40.142 34.754 41.5946 33.2941C43.0764 31.8196 44.9597 30.4983 44.5071 29.3961C43.4633 29.1406 41.9158 31.1626 40.6894 32.3889C39.4266 33.6663 37.4411 35.1409 37.7112 36.192Z" fill="#EED014"/>
<path fill-rule="evenodd" clip-rule="evenodd" d="M34.8863 36.842C32.3898 37.5428 33.4483 41.3313 36.0469 40.5283C38.2733 39.8348 37.4338 36.134 34.8863 36.842Z" fill="#EED014"/>
<path fill-rule="evenodd" clip-rule="evenodd" d="M37.7917 40.9368C36.7625 41.5135 38.3611 42.7033 38.6312 42.9734L42.1569 46.4991C42.5438 46.8787 43.5584 48.2948 44.2811 47.7984C45.1935 47.178 42.5949 45.1414 41.5072 44.0392C40.7262 43.2508 38.4122 40.5865 37.7917 40.9368Z" fill="#EED014"/>
<path fill-rule="evenodd" clip-rule="evenodd" d="M33.2951 40.9285C32.2805 40.7022 31.8644 41.5124 31.2585 42.1256L27.7328 45.6513C27.3971 45.9871 25.8861 47.0966 26.4992 47.7317C27.2365 48.4835 29.2804 45.8995 30.3534 44.8265C31.8571 43.3373 33.6017 42.1402 33.2951 40.9285Z" fill="#EED014"/>
<path fill-rule="evenodd" clip-rule="evenodd" d="M33.4044 36.243C33.7402 35.2356 32.9153 34.8415 32.3022 34.2283C31.6598 33.5859 31.1342 33.0531 30.4992 32.4253C29.6305 31.5639 27.3531 28.8339 26.7034 29.3887C25.8421 30.1186 28.3604 32.0822 29.521 33.2428C30.8715 34.5933 32.3314 36.5788 33.4044 36.243Z" fill="#EED014"/>
<path fill-rule="evenodd" clip-rule="evenodd" d="M23.6232 38.9806C25.3751 39.331 29.4336 39.1485 31.2731 39.1485C32.3972 39.1485 32.7914 39.1485 32.4848 37.9879C30.1198 37.82 27.7401 37.9149 25.3751 37.9149C24.3531 37.9076 23.1706 37.5864 23.6232 38.9806Z" fill="#EED014"/>
<path fill-rule="evenodd" clip-rule="evenodd" d="M74.3988 39.148C72.0848 39.586 72.8805 42.8781 75.158 42.3088C76.9464 41.8562 76.4719 38.7539 74.3988 39.148Z" fill="#EED014"/>
<path fill-rule="evenodd" clip-rule="evenodd" d="M55.6171 39.411C53.5659 40.9293 55.712 43.1191 57.3106 42.1337C59.0479 41.0753 57.442 38.0605 55.6171 39.411Z" fill="#EED014"/>
<path d="M165.651 78.1586L155.553 97.0586H152.691L150.585 82.0466L142.35 97.0586H139.488L136.95 78.1586H139.596L141.648 93.5756L150.018 78.1586H152.529L154.635 93.6026L162.951 78.1586H165.651ZM180.023 82.7486L177.188 97.0586H174.704L175.055 95.3036C174.407 95.9156 173.651 96.3926 172.787 96.7346C171.941 97.0586 171.014 97.2206 170.006 97.2206C168.782 97.2206 167.693 96.9776 166.739 96.4916C165.785 95.9876 165.038 95.2676 164.498 94.3316C163.958 93.3956 163.688 92.2976 163.688 91.0376C163.688 89.4176 164.039 87.9686 164.741 86.6906C165.443 85.4126 166.406 84.4136 167.63 83.6936C168.872 82.9736 170.258 82.6136 171.788 82.6136C173.012 82.6136 174.056 82.8296 174.92 83.2616C175.802 83.6936 176.477 84.3326 176.945 85.1786L177.431 82.7486H180.023ZM170.573 94.9526C171.635 94.9526 172.589 94.7006 173.435 94.1966C174.299 93.6746 174.965 92.9546 175.433 92.0366C175.919 91.1186 176.162 90.0746 176.162 88.9046C176.162 87.6266 175.793 86.6366 175.055 85.9346C174.317 85.2326 173.264 84.8816 171.896 84.8816C170.834 84.8816 169.88 85.1426 169.034 85.6646C168.188 86.1686 167.522 86.8796 167.036 87.7976C166.55 88.7156 166.307 89.7596 166.307 90.9296C166.307 92.1896 166.676 93.1796 167.414 93.8996C168.17 94.6016 169.223 94.9526 170.573 94.9526ZM187.033 84.8816C187.663 84.0896 188.437 83.5136 189.355 83.1536C190.273 82.7936 191.389 82.6136 192.703 82.6136L192.217 85.1246C192.055 85.1066 191.83 85.0976 191.542 85.0976C188.572 85.0976 186.772 86.6996 186.142 89.9036L184.711 97.0586H182.119L184.954 82.7486H187.438L187.033 84.8816ZM195.388 90.7136V90.8756C195.388 92.2076 195.766 93.2246 196.522 93.9266C197.278 94.6106 198.412 94.9526 199.924 94.9526C200.806 94.9526 201.634 94.8086 202.408 94.5206C203.182 94.2146 203.83 93.8096 204.352 93.3056L205.459 95.1686C204.757 95.8166 203.902 96.3206 202.894 96.6806C201.886 97.0406 200.824 97.2206 199.708 97.2206C198.304 97.2206 197.089 96.9686 196.063 96.4646C195.037 95.9606 194.245 95.2406 193.687 94.3046C193.129 93.3686 192.85 92.2706 192.85 91.0106C192.85 89.4086 193.192 87.9686 193.876 86.6906C194.578 85.4126 195.541 84.4136 196.765 83.6936C198.007 82.9736 199.393 82.6136 200.923 82.6136C202.867 82.6136 204.415 83.1716 205.567 84.2876C206.737 85.3856 207.322 86.8886 207.322 88.7966C207.322 89.3726 207.259 90.0116 207.133 90.7136H195.388ZM200.815 84.7736C199.537 84.7736 198.439 85.1336 197.521 85.8536C196.603 86.5736 195.982 87.5636 195.658 88.8236H204.892C204.964 87.5456 204.622 86.5556 203.866 85.8536C203.128 85.1336 202.111 84.7736 200.815 84.7736ZM219.535 82.6136C221.173 82.6136 222.442 83.0276 223.342 83.8556C224.26 84.6836 224.719 85.8536 224.719 87.3656C224.719 87.8876 224.665 88.4456 224.557 89.0396L222.964 97.0586H220.372L221.965 89.0396C222.055 88.5536 222.1 88.1576 222.1 87.8516C222.1 86.9156 221.821 86.1956 221.263 85.6916C220.705 85.1876 219.877 84.9356 218.779 84.9356C217.375 84.9356 216.214 85.3226 215.296 86.0966C214.396 86.8526 213.793 87.9866 213.487 89.4986L211.975 97.0586H209.383L213.379 77.0246H215.971L214.486 84.4226C215.764 83.2166 217.447 82.6136 219.535 82.6136ZM234.536 97.2206C233.186 97.2206 232.007 96.9686 230.999 96.4646C229.991 95.9426 229.208 95.2136 228.65 94.2776C228.092 93.3416 227.813 92.2616 227.813 91.0376C227.813 89.4356 228.173 87.9956 228.893 86.7176C229.613 85.4396 230.612 84.4406 231.89 83.7206C233.168 82.9826 234.608 82.6136 236.21 82.6136C237.56 82.6136 238.739 82.8656 239.747 83.3696C240.755 83.8736 241.529 84.5936 242.069 85.5296C242.627 86.4476 242.906 87.5276 242.906 88.7696C242.906 90.3716 242.546 91.8206 241.826 93.1166C241.106 94.3946 240.107 95.4026 238.829 96.1406C237.569 96.8606 236.138 97.2206 234.536 97.2206ZM234.698 94.9526C235.76 94.9526 236.714 94.7006 237.56 94.1966C238.424 93.6746 239.09 92.9546 239.558 92.0366C240.044 91.1186 240.287 90.0746 240.287 88.9046C240.287 87.6266 239.918 86.6366 239.18 85.9346C238.442 85.2326 237.389 84.8816 236.021 84.8816C234.959 84.8816 234.005 85.1426 233.159 85.6646C232.313 86.1686 231.647 86.8796 231.161 87.7976C230.675 88.7156 230.432 89.7596 230.432 90.9296C230.432 92.1896 230.801 93.1796 231.539 93.8996C232.295 94.6016 233.348 94.9526 234.698 94.9526ZM261.151 82.7486L258.316 97.0586H255.832L256.183 95.2226C255.535 95.8886 254.77 96.3926 253.888 96.7346C253.024 97.0586 252.079 97.2206 251.053 97.2206C249.469 97.2206 248.218 96.7976 247.3 95.9516C246.382 95.1056 245.923 93.9266 245.923 92.4146C245.923 91.9106 245.977 91.3616 246.085 90.7676L247.678 82.7486H250.27L248.677 90.7946C248.587 91.2806 248.542 91.6856 248.542 92.0096C248.542 92.9456 248.812 93.6656 249.352 94.1696C249.91 94.6556 250.729 94.8986 251.809 94.8986C253.177 94.8986 254.311 94.5116 255.211 93.7376C256.129 92.9636 256.741 91.8296 257.047 90.3356L258.559 82.7486H261.151ZM267.76 97.2206C266.572 97.2206 265.438 97.0676 264.358 96.7616C263.296 96.4556 262.468 96.0596 261.874 95.5736L263.035 93.5216C263.593 93.9716 264.313 94.3316 265.195 94.6016C266.095 94.8536 267.031 94.9796 268.003 94.9796C269.227 94.9796 270.154 94.7996 270.784 94.4396C271.432 94.0616 271.756 93.5396 271.756 92.8736C271.756 92.3336 271.495 91.9466 270.973 91.7126C270.469 91.4786 269.677 91.2446 268.597 91.0106C267.589 90.7946 266.761 90.5786 266.113 90.3626C265.483 90.1286 264.943 89.7686 264.493 89.2826C264.043 88.7786 263.818 88.1036 263.818 87.2576C263.818 86.3216 264.079 85.5026 264.601 84.8006C265.141 84.0986 265.897 83.5586 266.869 83.1806C267.859 82.8026 269.002 82.6136 270.298 82.6136C271.252 82.6136 272.179 82.7306 273.079 82.9646C273.979 83.1986 274.717 83.5136 275.293 83.9096L274.267 85.9616C273.709 85.5836 273.061 85.3046 272.323 85.1246C271.585 84.9266 270.829 84.8276 270.055 84.8276C268.885 84.8276 267.985 85.0256 267.355 85.4216C266.725 85.7996 266.41 86.3126 266.41 86.9606C266.41 87.5366 266.671 87.9506 267.193 88.2026C267.715 88.4366 268.525 88.6706 269.623 88.9046C270.613 89.1206 271.423 89.3366 272.053 89.5526C272.683 89.7686 273.214 90.1196 273.646 90.6056C274.096 91.0916 274.321 91.7486 274.321 92.5766C274.321 94.0346 273.718 95.1776 272.512 96.0056C271.324 96.8156 269.74 97.2206 267.76 97.2206ZM279.612 82.7486H282.204L279.369 97.0586H276.777L279.612 82.7486ZM281.664 79.9946C281.196 79.9946 280.809 79.8416 280.503 79.5356C280.197 79.2296 280.044 78.8606 280.044 78.4286C280.044 77.9246 280.215 77.5016 280.557 77.1596C280.917 76.7996 281.367 76.6196 281.907 76.6196C282.375 76.6196 282.762 76.7726 283.068 77.0786C283.392 77.3666 283.554 77.7176 283.554 78.1316C283.554 78.6896 283.374 79.1396 283.014 79.4816C282.672 79.8236 282.222 79.9946 281.664 79.9946ZM294.47 82.6136C296.108 82.6136 297.377 83.0276 298.277 83.8556C299.195 84.6836 299.654 85.8536 299.654 87.3656C299.654 87.8876 299.6 88.4456 299.492 89.0396L297.899 97.0586H295.307L296.9 89.0396C296.99 88.5536 297.035 88.1576 297.035 87.8516C297.035 86.9156 296.756 86.1956 296.198 85.6916C295.64 85.1876 294.812 84.9356 293.714 84.9356C292.31 84.9356 291.149 85.3226 290.231 86.0966C289.331 86.8526 288.728 87.9866 288.422 89.4986L286.91 97.0586H284.318L287.153 82.7486H289.637L289.286 84.5846C290.582 83.2706 292.31 82.6136 294.47 82.6136ZM319.299 82.7486L316.842 95.1146C316.338 97.6706 315.384 99.5336 313.98 100.704C312.594 101.874 310.695 102.459 308.283 102.459C306.933 102.459 305.7 102.279 304.584 101.919C303.468 101.577 302.523 101.082 301.749 100.434L303.18 98.4356C303.756 98.9576 304.503 99.3716 305.421 99.6776C306.357 100.002 307.374 100.164 308.472 100.164C310.128 100.164 311.406 99.7856 312.306 99.0296C313.224 98.2736 313.845 97.1036 314.169 95.5196L314.385 94.4936C313.017 95.8076 311.289 96.4646 309.201 96.4646C307.941 96.4646 306.825 96.2306 305.853 95.7626C304.899 95.2946 304.152 94.6196 303.612 93.7376C303.09 92.8556 302.829 91.8206 302.829 90.6326C302.829 89.1386 303.171 87.7796 303.855 86.5556C304.557 85.3316 305.529 84.3686 306.771 83.6666C308.013 82.9646 309.417 82.6136 310.983 82.6136C312.207 82.6136 313.287 82.8476 314.223 83.3156C315.177 83.7656 315.879 84.4496 316.329 85.3676L316.842 82.7486H319.299ZM309.714 94.1966C310.794 94.1966 311.757 93.9626 312.603 93.4946C313.467 93.0086 314.133 92.3426 314.601 91.4966C315.087 90.6326 315.33 89.6606 315.33 88.5806C315.33 87.4286 314.952 86.5286 314.196 85.8806C313.458 85.2146 312.414 84.8816 311.064 84.8816C309.984 84.8816 309.012 85.1246 308.148 85.6106C307.302 86.0786 306.636 86.7446 306.15 87.6086C305.682 88.4546 305.448 89.4086 305.448 90.4706C305.448 91.6406 305.826 92.5586 306.582 93.2246C307.338 93.8726 308.382 94.1966 309.714 94.1966Z" fill="black"/>
</svg>
