<svg width="67" height="26" viewBox="0 0 67 26" fill="none" xmlns="http://www.w3.org/2000/svg">
<path d="M63.855 0.625H2.38663C1.07895 0.625 0.0224609 1.12773 0.0224609 1.75V7.375H66.2192V1.75C66.2192 1.12773 65.1627 0.625 63.855 0.625ZM0.0224609 24.25C0.0224609 24.8723 1.07895 25.375 2.38663 25.375H63.855C65.1627 25.375 66.2192 24.8723 66.2192 24.25V10.4688H0.0224609V24.25ZM42.7992 17.7812C42.7992 17.6266 43.0651 17.5 43.3902 17.5H55.5804C55.9055 17.5 56.1715 17.6266 56.1715 17.7812V20.3125C56.1715 20.4672 55.9055 20.5938 55.5804 20.5938H43.3902C43.0651 20.5938 42.7992 20.4672 42.7992 20.3125V17.7812Z" fill="#EED014"/>
</svg>
