<svg width="67" height="32" viewBox="0 0 67 32" fill="none" xmlns="http://www.w3.org/2000/svg">
<path d="M66.6813 12.6431C66.9983 12.2636 67.0811 11.8461 66.9194 11.4433C66.7577 11.0405 66.3586 10.6705 65.7726 10.3802L44.8354 0L38.9144 2.93551L52.7036 9.7719H0.000485129V13.924H62.8121C63.6402 13.9241 64.4498 13.8024 65.1385 13.5744C65.8272 13.3464 66.3641 13.0223 66.6813 12.6431ZM0.318731 19.3569C0.00172215 19.7364 -0.0811523 20.1539 0.0805958 20.5567C0.242344 20.9595 0.641446 21.3295 1.22741 21.6198L22.1646 32L28.0856 29.0645L14.2964 22.2281H66.9995V18.076H4.18792C3.35967 18.0757 2.54982 18.1972 1.86102 18.4252C1.17221 18.6532 0.635442 18.9775 0.318731 19.3569Z" fill="#EED014"/>
</svg>
