<svg width="74" height="42" viewBox="0 0 74 42" fill="none" xmlns="http://www.w3.org/2000/svg">
<path d="M68.2188 -0.109375H5.78125C4.86161 -0.108666 3.97994 0.133553 3.32966 0.564147C2.67937 0.994741 2.31357 1.57855 2.3125 2.1875V32.8125C2.31357 33.4215 2.67937 34.0053 3.32966 34.4359C3.97994 34.8664 4.86161 35.1087 5.78125 35.1094H68.2188C69.1384 35.1087 70.0201 34.8664 70.6703 34.4359C71.3206 34.0053 71.6864 33.4215 71.6875 32.8125V2.1875C71.6864 1.57855 71.3206 0.994741 70.6703 0.564147C70.0201 0.133553 69.1384 -0.108666 68.2188 -0.109375ZM67.0625 2.95312V9.07812H6.9375V2.95312H67.0625ZM6.9375 32.0469V15.2031H67.0625V32.0469H6.9375Z" fill="#EED014"/>
<path d="M12.7188 22.8594H21.9688V25.9219H12.7188V22.8594Z" fill="#EED014"/>
<path d="M26.5938 22.8594H35.8438V25.9219H26.5938V22.8594Z" fill="#EED014"/>
</svg>
